<svg width="1910" height="231" viewBox="0 0 1910 231" fill="none" xmlns="http://www.w3.org/2000/svg">
<path d="M0.816406 6.66016H22.9648L142.184 91.6992V6.66016H219.156V225H189.762L77.5156 149.941V225H0.816406V6.66016ZM367.496 230.332C352.092 230.332 337.145 227.643 322.652 222.266C308.251 216.797 295.263 209.004 283.688 198.887C272.203 188.77 263.089 176.647 256.344 162.52C249.599 148.301 246.227 132.441 246.227 114.941C246.227 97.806 249.371 82.2201 255.66 68.1836C262.04 54.1471 270.836 42.0703 282.047 31.9531C293.258 21.8359 306.155 14.0885 320.738 8.71094C335.413 3.24219 350.999 0.507812 367.496 0.507812C384.814 0.507812 400.947 3.15104 415.895 8.4375C430.934 13.6328 444.059 21.2435 455.27 31.2695C466.572 41.2044 475.367 53.3268 481.656 67.6367C488.036 81.8555 491.227 97.9883 491.227 116.035C491.227 133.535 487.9 149.349 481.246 163.477C474.592 177.513 465.478 189.499 453.902 199.434C442.327 209.368 429.111 217.025 414.254 222.402C399.488 227.689 383.902 230.332 367.496 230.332ZM357.926 159.238C362.757 159.238 367.906 156.914 373.375 152.266C378.844 147.526 383.993 141.51 388.824 134.219C393.655 126.927 397.574 119.225 400.582 111.113C403.681 103.001 405.23 95.5273 405.23 88.6914C405.23 82.3112 403.544 77.0247 400.172 72.832C396.799 68.6393 391.103 66.543 383.082 66.543C378.16 66.543 372.874 68.8672 367.223 73.5156C361.663 78.0729 356.422 83.9974 351.5 91.2891C346.669 98.4896 342.704 106.146 339.605 114.258C336.507 122.279 334.957 129.707 334.957 136.543C334.957 143.105 336.689 148.529 340.152 152.812C343.707 157.096 349.632 159.238 357.926 159.238ZM509.41 6.66016H716.129V77.4805H655.289V225H570.25V77.4805H509.41V6.66016ZM740.465 6.66016H897.828V69.5508H825.504V87.4609H897.555V141.055H825.504V161.699H902.613V225H740.465V6.66016ZM932.008 152.539C932.555 152.63 935.107 153.451 939.664 155C944.312 156.458 949.918 158.145 956.48 160.059C963.043 161.882 969.605 163.522 976.168 164.98C982.822 166.348 988.473 167.031 993.121 167.031C997.132 167.031 1000.41 166.439 1002.96 165.254C1005.52 164.069 1006.79 161.882 1006.79 158.691C1006.79 155.228 1004.97 152.083 1001.32 149.258C997.678 146.432 992.984 143.516 987.242 140.508C981.591 137.5 975.53 134.082 969.059 130.254C962.678 126.426 956.617 121.823 950.875 116.445C945.224 111.068 940.576 104.642 936.93 97.168C933.284 89.6029 931.461 80.5794 931.461 70.0977C931.461 57.2461 934.15 46.3997 939.527 37.5586C944.905 28.6263 952.105 21.4714 961.129 16.0938C970.243 10.625 980.452 6.66016 991.754 4.19922C1003.15 1.73828 1014.81 0.507812 1026.75 0.507812C1036.87 0.507812 1046.44 1.05469 1055.46 2.14844C1064.49 3.24219 1072.1 4.42708 1078.3 5.70312C1084.59 6.97917 1088.55 7.84505 1090.19 8.30078V71.0547C1090.19 71.0547 1088.28 70.6445 1084.45 69.8242C1080.71 69.0039 1075.97 68.0924 1070.23 67.0898C1064.58 66.0872 1058.7 65.1758 1052.59 64.3555C1046.58 63.5352 1041.29 63.125 1036.73 63.125C1032.54 63.125 1029.4 63.8542 1027.3 65.3125C1025.2 66.7708 1024.16 68.5026 1024.16 70.5078C1024.16 72.1484 1025.07 73.9714 1026.89 75.9766C1028.71 77.8906 1030.9 79.3945 1033.45 80.4883C1043.02 84.681 1052.05 88.9648 1060.52 93.3398C1069 97.7148 1076.47 102.773 1082.95 108.516C1089.42 114.258 1094.48 121.276 1098.12 129.57C1101.86 137.773 1103.73 147.845 1103.73 159.785C1103.73 174.004 1100.13 186.4 1092.93 196.973C1085.82 207.546 1075.52 215.749 1062.03 221.582C1048.63 227.415 1032.45 230.332 1013.49 230.332C997.177 230.332 983.733 229.557 973.16 228.008C962.587 226.458 954.293 224.727 948.277 222.812C942.262 220.807 938.023 219.03 935.562 217.48C933.193 215.931 932.008 215.156 932.008 215.156V152.539ZM1217.89 225H1132.85V6.66016H1217.89V225ZM1427.61 218.574C1408.2 226.413 1387.19 230.332 1364.59 230.332C1349.09 230.332 1334.05 227.962 1319.47 223.223C1304.98 218.483 1291.94 211.556 1280.37 202.441C1268.88 193.327 1259.72 182.116 1252.89 168.809C1246.14 155.501 1242.77 140.28 1242.77 123.145C1242.77 105.007 1245.96 88.4635 1252.34 73.5156C1258.81 58.4766 1267.97 45.5339 1279.82 34.6875C1291.67 23.75 1305.71 15.319 1321.93 9.39453C1338.15 3.47005 1356.11 0.507812 1375.8 0.507812C1379.44 0.507812 1384.05 0.690104 1389.61 1.05469C1395.26 1.41927 1401.09 2.10286 1407.11 3.10547C1413.12 4.01693 1418.54 5.38411 1423.38 7.20703V77.7539C1417.36 75.4753 1411.21 74.3359 1404.92 74.3359C1395.53 74.3359 1386.87 76.6602 1378.94 81.3086C1371.01 85.8659 1364.68 92.0182 1359.94 99.7656C1355.2 107.513 1352.83 116.126 1352.83 125.605C1352.83 134.993 1354.65 142.331 1358.3 147.617C1361.94 152.904 1367.32 155.547 1374.43 155.547C1377.26 155.547 1380.63 155.091 1384.55 154.18C1388.47 153.268 1393.8 150.99 1400.54 147.344C1407.38 143.698 1416.4 137.773 1427.61 129.57V218.574ZM1447.57 225L1556.13 17.7344C1558.77 12.7214 1562.87 8.84766 1568.43 6.11328C1573.99 3.28776 1579.78 1.875 1585.8 1.875C1591.17 1.875 1596.42 3.10547 1601.52 5.56641C1606.71 8.02734 1610.73 11.8099 1613.55 16.9141L1730.04 225H1619.16L1610.54 203.398H1551.48L1544.1 225H1447.57ZM1558.18 160.059H1602.34L1581.42 100.996L1558.18 160.059ZM1750.82 6.66016H1835.86V159.238H1909.27V225H1750.82V6.66016Z" fill="white"/>
</svg>
